<svg xmlns="http://www.w3.org/2000/svg" width="17.975" height="13.481" viewBox="0 0 17.975 13.481">
  <path id="email" d="M16.29,64H1.685A1.685,1.685,0,0,0,0,65.685V75.8a1.685,1.685,0,0,0,1.685,1.685h14.6A1.685,1.685,0,0,0,17.975,75.8V65.685A1.685,1.685,0,0,0,16.29,64Zm0,1.685v1.433c-.787.641-2.042,1.638-4.725,3.739-.591.465-1.762,1.582-2.577,1.569-.815.013-1.986-1.1-2.577-1.569-2.682-2.1-3.938-3.1-4.725-3.739V65.685ZM1.685,75.8V69.28c.8.641,1.945,1.54,3.684,2.9.767.6,2.111,1.937,3.618,1.929,1.5.008,2.826-1.306,3.618-1.929,1.739-1.362,2.88-2.261,3.684-2.9V75.8Z" transform="translate(0 -64)" fill="#fff"/>
</svg>
