<svg xmlns="http://www.w3.org/2000/svg" width="15.356" height="15.356" viewBox="0 0 15.356 15.356">
  <path id="Path_583" data-name="Path 583" d="M7.678,1.365a23.543,23.543,0,0,1,3.071.085,3.957,3.957,0,0,1,1.45.256,3,3,0,0,1,1.45,1.45,3.957,3.957,0,0,1,.256,1.45c0,.768.085,1.024.085,3.071a23.543,23.543,0,0,1-.085,3.071,3.957,3.957,0,0,1-.256,1.45,3,3,0,0,1-1.45,1.45,3.957,3.957,0,0,1-1.45.256c-.768,0-1.024.085-3.071.085a23.543,23.543,0,0,1-3.071-.085,3.957,3.957,0,0,1-1.45-.256,3,3,0,0,1-1.45-1.45,3.957,3.957,0,0,1-.256-1.45c0-.768-.085-1.024-.085-3.071A23.543,23.543,0,0,1,1.45,4.607a3.957,3.957,0,0,1,.256-1.45A3.064,3.064,0,0,1,2.3,2.3a1.442,1.442,0,0,1,.853-.6,3.957,3.957,0,0,1,1.45-.256,23.543,23.543,0,0,1,3.071-.085M7.678,0A25.207,25.207,0,0,0,4.522.085,5.267,5.267,0,0,0,2.645.427,3.34,3.34,0,0,0,1.28,1.28,3.34,3.34,0,0,0,.427,2.645,3.887,3.887,0,0,0,.085,4.522,25.207,25.207,0,0,0,0,7.678a25.207,25.207,0,0,0,.085,3.157,5.267,5.267,0,0,0,.341,1.877,3.34,3.34,0,0,0,.853,1.365,3.34,3.34,0,0,0,1.365.853,5.267,5.267,0,0,0,1.877.341,25.208,25.208,0,0,0,3.157.085,25.208,25.208,0,0,0,3.157-.085,5.267,5.267,0,0,0,1.877-.341,3.579,3.579,0,0,0,2.218-2.218,5.267,5.267,0,0,0,.341-1.877c0-.853.085-1.109.085-3.157a25.208,25.208,0,0,0-.085-3.157,5.267,5.267,0,0,0-.341-1.877,3.34,3.34,0,0,0-.853-1.365A3.34,3.34,0,0,0,12.712.427,5.267,5.267,0,0,0,10.835.085,25.207,25.207,0,0,0,7.678,0m0,3.754A3.861,3.861,0,0,0,3.754,7.678,3.924,3.924,0,1,0,7.678,3.754m0,6.484A2.514,2.514,0,0,1,5.119,7.678,2.514,2.514,0,0,1,7.678,5.119a2.514,2.514,0,0,1,2.559,2.559,2.514,2.514,0,0,1-2.559,2.559m4.095-7.593a.938.938,0,1,0,.938.938.947.947,0,0,0-.938-.938" fill="#fff" fill-rule="evenodd"/>
</svg>
