<svg xmlns="http://www.w3.org/2000/svg" width="15.356" height="12.456" viewBox="0 0 15.356 12.456">
  <path id="Path_584" data-name="Path 584" d="M42.863,14.456A8.878,8.878,0,0,0,51.821,5.5V5.071A6.935,6.935,0,0,0,53.356,3.45a7.082,7.082,0,0,1-1.792.512A3.319,3.319,0,0,0,52.93,2.256a7.825,7.825,0,0,1-1.962.768A3.047,3.047,0,0,0,48.664,2a3.205,3.205,0,0,0-3.157,3.157,1.663,1.663,0,0,0,.085.682,8.82,8.82,0,0,1-6.484-3.327,3.267,3.267,0,0,0-.427,1.621,3.39,3.39,0,0,0,1.365,2.645,2.876,2.876,0,0,1-1.45-.427h0a3.118,3.118,0,0,0,2.559,3.071,2.63,2.63,0,0,1-.853.085,1.452,1.452,0,0,1-.6-.085,3.232,3.232,0,0,0,2.986,2.218,6.441,6.441,0,0,1-3.924,1.365A2.362,2.362,0,0,1,38,12.92a8.052,8.052,0,0,0,4.863,1.536" transform="translate(-38 -2)" fill="#fff" fill-rule="evenodd"/>
</svg>
